<svg id="Layer_1" data-name="Layer 1" xmlns="http://www.w3.org/2000/svg" viewBox="0 0 134.01 286.81"><defs><style>.cls-1{fill:none;}.cls-2{fill:#fff;}.cls-3{fill:#312532;}</style></defs><line class="cls-1" x1="30.87" y1="15.24" x2="103.08" y2="15.24"/><path class="cls-2" d="M231.94,127" transform="translate(-196.75 -111.39)"/><path class="cls-3" d="M201.76,398.2a3.85,3.85,0,0,1-.48,0,5,5,0,0,1-4.5-5.46l20.59-214.66h93.4l20,213.45a5,5,0,1,1-9.95.94L301.66,188.06h-75.2L206.73,393.68A5,5,0,0,1,201.76,398.2Z" transform="translate(-196.75 -111.39)"/><polygon class="cls-3" points="6.22 247.6 125.34 226.22 122.29 187.74 9.89 209.73 6.22 247.6"/><polygon class="cls-3" points="18.46 145.06 114.35 125.97 111.28 101.6 20.3 116.09 18.46 145.06"/><ellipse class="cls-3" cx="66.98" cy="42.83" rx="20.47" ry="12.38"/><path class="cls-3" d="M263.3,111.39c-13.07,0-24.2,6-28.45,14.4h56.91C287.51,117.39,276.37,111.39,263.3,111.39Z" transform="translate(-196.75 -111.39)"/><rect class="cls-3" x="13.4" y="17.37" width="106.56" height="4.15"/></svg>