<svg id="Layer_1" data-name="Layer 1" xmlns="http://www.w3.org/2000/svg" viewBox="0 0 510.17 512"><defs><style>.cls-1{fill:#312532;}.cls-2{fill:none;}.cls-3{fill:#fff;}</style></defs><rect class="cls-1" width="510.17" height="512"/><line class="cls-2" x1="228.45" y1="127.46" x2="300.67" y2="127.46"/><path class="cls-3" d="M231.94,127" transform="translate(0.83 0.83)"/><path class="cls-3" d="M201.76,398.2a3.85,3.85,0,0,1-.48,0,5,5,0,0,1-4.5-5.46l20.59-214.66h93.4l20,213.45a5,5,0,1,1-9.95.94L301.66,188.06h-75.2L206.73,393.68A5,5,0,0,1,201.76,398.2Z" transform="translate(0.83 0.83)"/><polygon class="cls-3" points="203.81 359.83 322.93 338.45 319.87 299.96 207.47 321.95 203.81 359.83"/><polygon class="cls-3" points="216.04 257.28 311.93 238.19 308.86 213.83 217.89 228.31 216.04 257.28"/><ellipse class="cls-3" cx="264.56" cy="155.06" rx="20.47" ry="12.38"/><path class="cls-3" d="M263.3,111.39c-13.07,0-24.2,6-28.45,14.4h56.91C287.51,117.39,276.37,111.39,263.3,111.39Z" transform="translate(0.83 0.83)"/><rect class="cls-3" x="210.98" y="129.59" width="106.56" height="4.15"/></svg>