<svg width="48" height="48" viewBox="0 0 48 48" fill="none" xmlns="http://www.w3.org/2000/svg">
<path d="M12.5692 9.38827C9.24767 10.7721 8.64375 15.8315 11.6202 17.6477C14.5536 19.4639 17.9183 18.2964 18.8673 15.0964C19.9888 11.3342 16.1928 7.918 12.5692 9.38827ZM16.883 11.3775C18.479 12.9342 18.3496 15.0964 16.6241 16.5234C14.8987 17.9937 13.432 17.9504 11.879 16.3937C9.46336 13.9288 10.8869 10.2964 14.2947 10.2964C15.3732 10.2964 16.1928 10.6423 16.883 11.3775Z" fill="#F7F7F7"/>
<path d="M30.6436 9.4319C29.0475 10.0806 27.8828 11.9833 27.8828 13.9292C27.9259 17.6049 31.4201 19.5941 34.7848 17.8643C36.424 16.9995 36.9416 16.0049 36.9416 13.6697C36.9416 10.2968 33.7495 8.17785 30.6436 9.4319Z" fill="#F7F7F7"/>
<path d="M4.15723 21.1073V24.1344H5.92585C10.4553 24.1344 11.8357 30.1884 7.78076 32.1344C6.91801 32.5236 5.88272 32.6965 5.23566 32.5236L4.15723 32.2641V35.5938V38.9668L6.48664 38.7073C9.11801 38.4479 11.6631 37.2803 13.1729 35.6371L14.2513 34.5127L15.5455 35.7668C17.1847 37.2803 18.9964 38.2317 21.1102 38.6209L22.7062 38.9236V35.8965C22.7062 32.9992 22.6631 32.8695 21.5847 32.61C18.4357 31.7884 17.271 27.5073 19.6004 25.3452C20.2474 24.7398 21.1533 24.1344 21.6278 24.0479C22.3611 23.9181 22.4906 23.529 22.62 20.9776L22.7494 18.0803H21.4121C19.6004 18.0803 17.5729 18.9884 15.718 20.6317C14.2082 21.929 14.2082 21.929 13.4317 21.1073C12.0513 19.5938 8.47095 18.0803 6.22781 18.0803H4.15723V21.1073ZM8.68664 19.4208C9.72193 19.7236 11.1455 20.6749 12.3102 21.7992L14.2082 23.7019L16.2788 21.756C17.4004 20.6749 18.3925 19.81 18.4788 19.81C18.5651 19.81 19.2553 19.6371 20.0317 19.4208L21.4121 18.9884V20.8911C21.4121 22.5776 21.2396 22.8371 19.9023 23.6587C18.3062 24.61 17.0984 26.729 17.0984 28.5884C17.0984 30.1019 18.8239 32.4803 20.4631 33.1722C21.7141 33.7344 21.8435 33.9938 21.8435 35.6803C21.8435 37.1506 21.671 37.5398 21.1102 37.5398C19.7298 37.5398 16.6239 35.7236 15.5023 34.2533L14.3808 32.783L12.7847 34.5127C10.9729 36.4587 8.77291 37.5398 6.52978 37.5398C5.01997 37.5398 5.01997 37.5398 5.01997 35.5938C5.01997 33.7776 5.10625 33.6479 6.22781 33.6479C7.99644 33.6479 10.1533 32.0911 10.8866 30.3181C12.267 27.0749 10.2827 23.5722 6.7886 23.01C5.01997 22.7073 5.01997 22.7073 5.01997 20.8479C5.01997 18.6857 5.45134 18.5127 8.68664 19.4208Z" fill="#F7F7F7"/>
<path d="M24.4314 20.8484C24.4314 23.616 24.4314 23.616 26.0275 24.4376C29.5216 26.1241 29.349 30.7511 25.7255 32.2646L24 32.9998V35.9403V38.8809L25.6392 38.5782C27.7529 38.189 29.9961 37.0214 31.2902 35.6376L32.3686 34.5133L33.4471 35.5511C35.2157 37.1511 36.5529 37.8863 38.8392 38.4052C42.1608 39.1403 42.549 38.8376 42.549 35.4646V32.5673H40.7804C38.4941 32.5673 36.5098 30.5349 36.5098 28.243C36.5098 25.9079 38.4078 24.0052 40.7373 24.0052H42.549V21.0646V18.0809H40.5216C38.149 18.0809 35.5608 19.1619 33.7922 20.8484L32.5412 22.016L30.9882 20.6322C29.2196 19.0755 27.1059 18.0809 25.5098 18.0809C24.4745 18.0809 24.4314 18.1673 24.4314 20.8484Z" fill="#F7F7F7"/>
</svg>
