<?xml version="1.0" standalone="no"?>
<!DOCTYPE svg PUBLIC "-//W3C//DTD SVG 20010904//EN"
 "http://www.w3.org/TR/2001/REC-SVG-20010904/DTD/svg10.dtd">
<svg version="1.0" xmlns="http://www.w3.org/2000/svg"
 width="102.000000pt" height="74.000000pt" viewBox="0 0 102.000000 74.000000"
 preserveAspectRatio="xMidYMid meet">

<g transform="translate(0.000000,74.000000) scale(0.100000,-0.100000)"
fill="#000000" stroke="none">
<path d="M245 731 c-77 -32 -91 -149 -22 -191 68 -42 146 -15 168 59 26 87
-62 166 -146 132z m100 -46 c37 -36 34 -86 -6 -119 -40 -34 -74 -33 -110 3
-56 57 -23 141 56 141 25 0 44 -8 60 -25z"/>
<path d="M664 730 c-37 -15 -64 -59 -64 -104 1 -85 82 -131 160 -91 38 20 50
43 50 97 0 78 -74 127 -146 98z"/>
<path d="M50 460 l0 -70 41 0 c105 0 137 -140 43 -185 -20 -9 -44 -13 -59 -9
l-25 6 0 -77 0 -78 54 6 c61 6 120 33 155 71 l25 26 30 -29 c38 -35 80 -57
129 -66 l37 -7 0 70 c0 67 -1 70 -26 76 -73 19 -100 118 -46 168 15 14 36 28
47 30 17 3 20 12 23 71 l3 67 -31 0 c-42 0 -89 -21 -132 -59 -35 -30 -35 -30
-53 -11 -32 35 -115 70 -167 70 l-48 0 0 -70z m105 39 c24 -7 57 -29 84 -55
l44 -44 48 45 c26 25 49 45 51 45 2 0 18 4 36 9 l32 10 0 -44 c0 -39 -4 -45
-35 -64 -37 -22 -65 -71 -65 -114 0 -35 40 -90 78 -106 29 -13 32 -19 32 -58
0 -34 -4 -43 -17 -43 -32 0 -104 42 -130 76 l-26 34 -37 -40 c-42 -45 -93 -70
-145 -70 -35 0 -35 0 -35 45 0 42 2 45 28 45 41 0 91 36 108 77 32 75 -14 156
-95 169 -41 7 -41 7 -41 50 0 50 10 54 85 33z"/>
<path d="M520 466 c0 -64 0 -64 37 -83 81 -39 77 -146 -7 -181 l-40 -17 0 -68
0 -68 38 7 c49 9 101 36 131 68 l25 26 25 -24 c41 -37 72 -54 125 -66 77 -17
86 -10 86 68 l0 67 -41 0 c-53 0 -99 47 -99 100 0 54 44 98 98 98 l42 0 0 68
0 69 -47 0 c-55 0 -115 -25 -156 -64 l-29 -27 -36 32 c-41 36 -90 59 -127 59
-24 0 -25 -2 -25 -64z"/>
</g>
</svg>
