<?xml version="1.0" encoding="UTF-8" standalone="no"?>
<svg
   xmlns:dc="http://purl.org/dc/elements/1.1/"
   xmlns:cc="http://creativecommons.org/ns#"
   xmlns:rdf="http://www.w3.org/1999/02/22-rdf-syntax-ns#"
   xmlns:svg="http://www.w3.org/2000/svg"
   xmlns="http://www.w3.org/2000/svg"
   viewBox="0 0 358.33334 140.33333"
   height="140.33333"
   width="358.33334"
   xml:space="preserve"
   id="svg2"
   version="1.1"><metadata
     id="metadata8"><rdf:RDF><cc:Work
         rdf:about=""><dc:format>image/svg+xml</dc:format><dc:type
           rdf:resource="http://purl.org/dc/dcmitype/StillImage" /></cc:Work></rdf:RDF></metadata><defs
     id="defs6"><clipPath
       id="clipPath18"
       clipPathUnits="userSpaceOnUse"><path
         id="path16"
         d="M 0,105.25 H 268.75 V 0 H 0 Z" /></clipPath><clipPath
       id="clipPath70"
       clipPathUnits="userSpaceOnUse"><path
         id="path68"
         d="M 0,105.25 H 268.75 V 0 H 0 Z" /></clipPath></defs><g
     transform="matrix(1.3333333,0,0,-1.3333333,0,140.33333)"
     id="g10"><g
       id="g12"><g
         clip-path="url(#clipPath18)"
         id="g14"><g
           transform="translate(33.1082,18.3695)"
           id="g20"><path
             id="path22"
             style="fill:#00a390;fill-opacity:1;fill-rule:nonzero;stroke:none"
             d="m 0,0 -1.48,-1.366 -1.254,1.424 z m 14.646,31.508 c -1.876,0.321 -4.124,-0.162 -4.124,-0.162 0,0 0.482,1.072 -0.053,0.911 -0.857,0.106 -1.874,-0.106 -1.874,-0.106 0,0 -1.681,-1.216 -3.213,-1.714 C 5.122,30.352 4.922,31 4.638,30.905 3.417,30.488 2.012,29.965 0.67,29.365 c -1.07,0.696 1.66,3.053 1.66,3.053 l 6.348,0.295 c 4.034,2.223 -0.755,7.998 -0.755,7.998 -2.562,-0.323 -4.323,-0.5 -4.469,-0.369 -0.107,0.481 0.161,2.356 0.161,2.356 0,0 0.75,-0.161 0.856,0.159 0.108,0.323 -0.16,1.179 -0.535,2.089 -0.375,0.912 1.554,8.193 -6.157,9.049 -7.496,0.321 -7.282,-4.819 -7.496,-6.264 -0.268,-2.303 1.446,-3.267 1.285,-5.355 -4.229,0.054 -3.427,0.054 -5.889,-0.053 -3.963,-0.857 -6.25,-13.874 -10.697,-18.533 -3.011,-3.152 -2.207,-7.971 -2.207,-7.971 0,0 0.712,-3.427 1.392,-4.335 2.784,-4.927 8.245,-6.695 8.62,-6.856 0.375,-0.159 -5.033,-3.906 -4.658,-5.086 0.375,-1.178 3.481,-7.55 3.481,-7.55 l 8.191,-0.054 c 0,0 -1.445,1.821 -1.177,2.464 0.266,0.642 0.749,0.642 0.749,0.642 0,0 1.553,-0.964 1.928,-1.231 0.374,-0.267 0.642,0.642 1.017,0.373 0.374,-0.266 2.355,-2.139 2.355,-2.139 0,0 6.533,-0.269 7.765,-0.109 1.231,0.162 -4.284,2.517 -4.284,4.446 -0.375,1.177 1.82,-0.696 3.159,-0.483 1.339,0.215 0.836,8.157 4.424,11.209 0.053,3.641 0.321,4.436 0,12.843 -11.727,0.161 -7.958,-0.01 -8.227,0.256 -0.267,0.268 0.216,1.285 0.216,1.285 0,0 8.78,3.695 8.941,5.303 5.729,-0.217 7.121,1.23 7.121,1.444 0,0.214 -0.556,0.331 -0.107,0.965 1.928,0.534 1.91,1.598 0.965,2.302" /></g><g
           transform="translate(57.7577,60.0567)"
           id="g24"><path
             id="path26"
             style="fill:#00a390;fill-opacity:1;fill-rule:nonzero;stroke:none"
             d="m 0,0 c 2.447,0.274 4.58,1.663 5.469,1.6 3.909,1.07 9.317,1.926 9.371,1.659 -0.161,-0.855 -3.267,-1.552 -3.48,-1.82 -0.216,-0.269 0.641,-1.126 0.641,-1.873 0,-0.751 0.108,-1.233 -1.927,-3.108 -0.749,0.161 -1.07,1.447 -1.714,1.715 -0.642,0.267 -0.963,-0.107 -1.659,-0.107 -1.5,-0.054 -1.5,0.589 -2.035,0.429 -1.874,0.052 -1.178,-1.018 -1.178,-1.018 0,0 -1.166,-0.597 -3.07,-1.413" /></g><g
           transform="translate(86.7009,43.9915)"
           id="g28"><path
             id="path30"
             style="fill:#1d1d1b;fill-opacity:1;fill-rule:nonzero;stroke:none"
             d="m 0,0 c -0.165,2.626 -0.247,5.459 -0.247,8.498 0,0.985 -0.041,1.959 -0.123,2.925 -0.083,0.964 -0.021,1.918 0.185,2.863 0.41,0.656 0.893,1.098 1.447,1.324 0.554,0.225 1.078,0.266 1.571,0.124 C 3.325,15.589 3.745,15.271 4.094,14.778 4.443,14.286 4.597,13.67 4.557,12.931 4.433,12.274 4.412,11.576 4.495,10.837 4.577,10.098 4.618,9.38 4.618,8.682 c 0,-2.833 0.071,-5.46 0.215,-7.881 m -5.264,25.924 c 0.41,0.656 0.893,1.098 1.447,1.324 0.554,0.225 1.078,0.266 1.57,0.123 C 3.079,28.028 3.499,27.71 3.848,27.217 4.197,26.725 4.351,26.11 4.31,25.371 4.228,25.082 4.146,24.805 4.064,24.539 3.981,24.272 3.92,23.975 3.879,23.646 3.92,23.236 3.961,22.835 4.002,22.445 4.042,22.055 4.084,21.654 4.125,21.244 4.125,20.505 3.941,19.91 3.572,19.459 3.202,19.006 2.76,18.729 2.247,18.628 1.734,18.525 1.21,18.597 0.677,18.843 c -0.534,0.246 -0.985,0.698 -1.355,1.355 -0.164,1.19 -0.257,2.299 -0.277,3.325 -0.021,1.026 0.154,2.094 0.524,3.202" /></g><g
           transform="translate(101.7866,34.8884)"
           id="g32"><path
             id="path34"
             style="fill:#1d1d1b;fill-opacity:1;fill-rule:nonzero;stroke:none"
             d="m 0,0 c -0.575,2.565 -1.037,5.213 -1.385,7.943 -0.35,2.73 -0.524,5.409 -0.524,8.037 0,2.627 0.287,4.884 0.862,6.773 0.41,0.656 0.893,1.098 1.447,1.324 0.555,0.226 1.078,0.266 1.571,0.123 C 2.463,24.056 2.884,23.738 3.233,23.246 3.581,22.753 3.735,22.138 3.695,21.399 3.202,19.756 2.966,17.755 2.987,15.395 3.007,13.033 3.181,10.612 3.51,8.128 3.838,5.644 4.258,3.253 4.773,0.954 m -7.359,17.674 c -0.576,-0.658 -1.18,-1.017 -1.817,-1.078 -0.636,-0.062 -1.19,0.081 -1.663,0.43 -0.471,0.349 -0.789,0.842 -0.954,1.479 -0.163,0.635 -0.02,1.323 0.431,2.062 0.042,0.041 0.145,0.185 0.308,0.431 0.165,0.247 0.36,0.503 0.585,0.77 0.226,0.267 0.462,0.534 0.708,0.801 0.247,0.266 0.473,0.461 0.677,0.585 1.355,0.779 2.618,1.395 3.788,1.847 1.17,0.452 2.534,0.821 4.095,1.109 1.025,0.204 2.206,0.348 3.54,0.431 1.334,0.081 2.699,0.081 4.095,0 1.396,-0.083 2.781,-0.288 4.157,-0.616 1.375,-0.329 2.617,-0.811 3.725,-1.448 1.109,-0.636 2.033,-1.447 2.772,-2.432 0.739,-0.985 1.19,-2.197 1.354,-3.633 0.164,-1.231 0.102,-2.412 -0.184,-3.541 C 22.743,14.696 22.312,13.619 21.737,12.592 21.162,11.566 20.475,10.601 19.675,9.699 18.874,8.795 18.043,7.974 17.181,7.235 16.319,6.497 15.384,5.797 14.379,5.141 13.372,4.484 12.356,3.869 11.331,3.295 10.715,2.965 10.222,2.709 9.853,2.525 9.483,2.34 9.134,2.176 8.806,2.032 8.477,1.887 8.129,1.734 7.759,1.57 7.39,1.406 6.897,1.179 6.281,0.892 4.885,0.277 3.725,-0.083 2.802,-0.185 1.878,-0.287 1.129,-0.052 0.554,0.523 -0.144,1.22 -0.483,1.939 -0.462,2.678 c 0.021,0.739 0.246,1.426 0.678,2.063 0.431,0.637 1.005,1.19 1.724,1.663 0.717,0.471 1.426,0.811 2.124,1.016 2.135,0.616 4.27,0.677 6.405,0.184 1.19,-0.205 2.36,-0.595 3.51,-1.169 1.148,-0.576 2.195,-1.212 3.14,-1.909 1.313,-0.945 2.504,-1.992 3.572,-3.141 1.067,-1.15 2.072,-2.361 3.017,-3.633 1.149,-1.519 2.237,-3.038 3.264,-4.557 1.025,-1.519 2.093,-2.997 3.202,-4.434 1.108,-1.437 2.298,-2.801 3.571,-4.094 1.272,-1.294 2.73,-2.453 4.372,-3.479 0.698,-0.493 1.109,-1.057 1.232,-1.694 0.123,-0.636 0.04,-1.21 -0.246,-1.724 -0.288,-0.513 -0.739,-0.872 -1.355,-1.078 -0.616,-0.204 -1.314,-0.123 -2.094,0.246 -2.299,1.478 -4.208,3.018 -5.727,4.618 -1.519,1.602 -2.904,3.264 -4.156,4.988 -1.253,1.725 -2.505,3.501 -3.756,5.328 -1.253,1.825 -2.741,3.704 -4.465,5.634 -0.78,0.902 -1.684,1.775 -2.709,2.617 C 13.814,0.964 12.726,1.641 11.577,2.155 10.427,2.668 9.237,2.944 8.005,2.986 6.774,3.027 5.562,2.719 4.372,2.063 4.289,1.98 4.228,1.887 4.188,1.786 4.146,1.683 4.115,1.61 4.095,1.57 4.074,1.528 4.084,1.57 4.126,1.693 4.166,1.817 4.249,2.063 4.372,2.432 V 2.863 C 4.289,3.068 4.197,3.284 4.095,3.51 3.992,3.735 3.88,3.951 3.756,4.156 3.674,4.238 3.51,4.362 3.264,4.526 3.181,4.526 3.11,4.535 3.048,4.557 2.987,4.577 2.915,4.587 2.833,4.587 H 2.648 c 0.779,0.37 1.734,0.811 2.863,1.324 1.129,0.513 2.309,1.109 3.541,1.786 1.232,0.677 2.433,1.426 3.602,2.248 1.171,0.821 2.207,1.693 3.11,2.617 0.903,0.924 1.591,1.887 2.063,2.894 0.472,1.006 0.626,2.063 0.462,3.172 -0.123,0.697 -0.391,1.271 -0.801,1.724 -0.411,0.45 -0.903,0.82 -1.478,1.108 -0.575,0.287 -1.191,0.502 -1.847,0.647 -0.657,0.143 -1.273,0.256 -1.847,0.338 -1.191,0.163 -2.484,0.256 -3.88,0.277 C 7.04,22.743 5.655,22.619 4.28,22.353 2.904,22.086 1.611,21.654 0.4,21.06 -0.811,20.464 -1.807,19.653 -2.586,18.628" /></g><g
           transform="translate(168.5479,61.257)"
           id="g36"><path
             id="path38"
             style="fill:#1d1d1b;fill-opacity:1;fill-rule:nonzero;stroke:none"
             d="M 0,0 C 0.312,0.585 0.749,1.002 1.314,1.25 1.877,1.498 2.48,1.535 3.122,1.362 3.764,1.189 4.269,0.71 4.638,-0.074 l 11.41,-48.018 c 0.327,-0.779 0.335,-1.461 0.024,-2.046 -0.312,-0.585 -0.761,-1.001 -1.345,-1.247 -0.584,-0.246 -1.197,-0.272 -1.836,-0.078 -0.64,0.194 -1.105,0.658 -1.396,1.392 L 0.085,-2.053 C -0.284,-1.27 -0.312,-0.585 0,0 m -6.807,-36.175 c -0.668,-0.051 -1.249,0.106 -1.746,0.469 -0.497,0.364 -0.833,0.876 -1.009,1.536 -0.175,0.658 10e-4,1.331 0.531,2.017 L 0.278,0.279 c 0.488,0.69 1.075,1.049 1.76,1.078 0.685,0.027 1.275,-0.139 1.772,-0.505 0.496,-0.363 0.824,-0.863 0.982,-1.5 0.156,-0.637 -0.009,-1.3 -0.497,-1.99 l -9.309,-32.433 c -0.53,-0.685 -1.128,-1.052 -1.793,-1.104 M -23.82,-0.862 c 0.312,0.585 0.75,1.001 1.314,1.249 0.564,0.248 1.166,0.285 1.809,0.112 0.641,-0.174 1.146,-0.652 1.515,-1.436 l 14.484,-31.814 c 0.327,-0.779 0.344,-1.473 0.051,-2.081 -0.295,-0.609 -0.723,-1.035 -1.287,-1.283 -0.564,-0.249 -1.176,-0.274 -1.836,-0.079 -0.66,0.196 -1.154,0.684 -1.481,1.464 l -14.484,31.813 c -0.369,0.784 -0.396,1.468 -0.085,2.055 m -4.907,-42.3 c -0.625,-0.241 -1.226,-0.258 -1.802,-0.05 -0.576,0.207 -1.039,0.599 -1.389,1.174 -0.35,0.575 -0.379,1.26 -0.085,2.053 l 8.17,39 c 0.293,0.793 0.752,1.311 1.377,1.552 0.625,0.242 1.226,0.258 1.803,0.051 0.575,-0.208 1.038,-0.599 1.389,-1.174 0.349,-0.575 0.378,-1.26 0.085,-2.054 l -8.17,-38.999 c -0.294,-0.793 -0.753,-1.312 -1.378,-1.553" /></g><g
           transform="translate(188.4237,39.5695)"
           id="g40"><path
             id="path42"
             style="fill:#1d1d1b;fill-opacity:1;fill-rule:nonzero;stroke:none"
             d="m 0,0 c -0.833,0.094 -1.456,0.401 -1.871,0.921 -0.415,0.521 -0.618,1.071 -0.604,1.649 0.011,0.578 0.235,1.109 0.671,1.595 0.435,0.485 1.088,0.74 1.958,0.764 C 1.569,4.907 2.972,4.847 4.363,4.747 5.753,4.647 7.14,4.538 8.524,4.419 9.909,4.299 11.302,4.209 12.705,4.148 14.108,4.088 15.509,4.093 16.911,4.162 17.78,4.185 18.461,3.989 18.953,3.573 19.445,3.157 19.73,2.667 19.809,2.104 19.887,1.539 19.75,0.98 19.401,0.424 19.05,-0.133 18.455,-0.513 17.614,-0.718 14.668,-0.898 11.739,-0.823 8.828,-0.495 5.916,-0.167 2.973,-0.002 0,0 m 0.671,-17.987 c -1.302,0.092 -2.968,-0.047 -4.124,0.622 -0.711,0.406 -1.223,1.051 -1.535,1.938 -0.313,0.886 -0.507,1.883 -0.584,2.992 -0.075,1.108 -0.054,2.279 0.066,3.514 0.119,1.234 0.273,2.43 0.459,3.585 0.186,1.157 0.371,2.209 0.555,3.157 0.183,0.947 0.311,1.686 0.384,2.216 0.234,1.671 0.457,3.335 0.667,4.99 0.209,1.656 0.472,3.311 0.787,4.965 0.148,0.682 0.303,1.499 0.466,2.451 0.164,0.95 0.394,1.92 0.691,2.907 0.296,0.985 0.662,1.904 1.098,2.754 0.436,0.851 0.979,1.522 1.631,2.011 0.806,0.623 1.627,1.024 2.464,1.2 0.835,0.176 1.67,0.249 2.503,0.216 0.833,-0.033 1.685,-0.122 2.557,-0.268 0.871,-0.147 1.785,-0.238 2.743,-0.276 2.712,-0.082 5.387,-0.04 8.028,0.125 2.639,0.165 5.311,0.188 8.015,0.066 0.851,-0.142 1.47,-0.485 1.856,-1.03 0.387,-0.547 0.549,-1.106 0.488,-1.68 -0.061,-0.576 -0.329,-1.085 -0.802,-1.528 -0.474,-0.444 -1.15,-0.655 -2.026,-0.634 -2.834,0.108 -5.647,0.063 -8.439,-0.132 -2.793,-0.195 -5.618,-0.195 -8.473,0.002 C 9.977,16.17 9.619,16.215 9.073,16.313 8.527,16.409 7.937,16.495 7.301,16.569 6.666,16.643 6.087,16.684 5.564,16.692 5.04,16.699 4.694,16.596 4.521,16.381 3.871,15.514 3.332,14.328 2.903,12.825 2.473,11.321 2.123,9.749 1.853,8.106 1.583,6.463 1.37,4.84 1.212,3.236 1.055,1.632 0.899,0.28 0.746,-0.821 0.673,-1.352 0.515,-2.231 0.272,-3.459 c -0.245,-1.228 -0.47,-2.513 -0.675,-3.855 -0.205,-1.341 -0.339,-2.594 -0.401,-3.756 -0.062,-1.163 0.073,-1.948 0.406,-2.355 0.133,-0.155 0.634,-0.514 1.162,-0.501 0.528,0.013 1.41,-0.089 1.976,0" /></g><g
           transform="translate(244.1268,51.3204)"
           id="g44"><path
             id="path46"
             style="fill:#1d1d1b;fill-opacity:1;fill-rule:nonzero;stroke:none"
             d="m 0,0 c 0.044,-0.857 -0.152,-1.527 -0.588,-2.012 -0.435,-0.486 -0.937,-0.764 -1.504,-0.836 -0.567,-0.073 -1.123,0.073 -1.667,0.439 -0.544,0.365 -0.929,0.957 -1.151,1.772 -0.074,0.566 -0.124,1.139 -0.151,1.716 -0.028,0.578 -0.103,1.135 -0.225,1.672 -0.123,0.536 -0.317,1.038 -0.583,1.506 -0.266,0.466 -0.674,0.871 -1.223,1.218 -0.81,0.493 -1.812,0.675 -3.005,0.545 -1.195,-0.131 -2.42,-0.476 -3.677,-1.035 -1.256,-0.559 -2.472,-1.296 -3.647,-2.214 -1.176,-0.917 -2.162,-1.88 -2.957,-2.89 -0.797,-1.009 -1.315,-2.046 -1.553,-3.107 -0.239,-1.062 -0.038,-2.009 0.605,-2.841 0.429,-0.318 0.922,-0.544 1.482,-0.681 0.558,-0.136 1.127,-0.223 1.711,-0.26 0.582,-0.037 1.15,-0.049 1.703,-0.035 0.552,0.012 1.082,0.02 1.59,0.023 1.821,0.019 3.746,0.066 5.772,0.141 2.025,0.075 3.99,-0.015 5.893,-0.269 1.903,-0.254 3.673,-0.793 5.31,-1.616 1.637,-0.823 2.993,-2.148 4.068,-3.974 0.491,-0.754 0.703,-1.662 0.634,-2.723 -0.07,-1.061 -0.247,-1.999 -0.531,-2.818 -0.521,-1.436 -1.358,-2.784 -2.511,-4.045 -1.154,-1.261 -2.497,-2.391 -4.03,-3.388 -1.534,-0.999 -3.192,-1.862 -4.976,-2.587 -1.784,-0.726 -3.585,-1.31 -5.404,-1.752 -1.82,-0.443 -3.584,-0.741 -5.29,-0.894 -1.708,-0.153 -3.233,-0.128 -4.579,0.074 -1.305,0.193 -2.72,0.454 -4.245,0.785 -1.526,0.331 -2.957,0.829 -4.294,1.494 -1.338,0.666 -2.463,1.553 -3.374,2.664 -0.912,1.111 -1.427,2.546 -1.545,4.308 -0.076,1.074 0.061,2.109 0.41,3.102 0.347,0.992 0.609,2.016 0.783,3.072 0.295,0.689 0.707,1.168 1.24,1.44 0.531,0.272 1.057,0.354 1.581,0.247 0.523,-0.107 0.976,-0.375 1.356,-0.806 0.38,-0.432 0.582,-1.031 0.607,-1.797 -0.116,-0.818 -0.298,-1.607 -0.548,-2.37 -0.25,-0.763 -0.374,-1.568 -0.368,-2.414 0.053,-0.986 0.428,-1.785 1.124,-2.399 0.695,-0.613 1.506,-1.098 2.435,-1.451 0.927,-0.354 1.891,-0.601 2.893,-0.74 1.001,-0.139 1.835,-0.227 2.504,-0.263 0.965,-0.026 2.13,0.027 3.493,0.159 1.364,0.132 2.801,0.35 4.313,0.657 1.511,0.306 3.018,0.719 4.519,1.24 1.501,0.521 2.887,1.133 4.158,1.836 1.271,0.704 2.369,1.523 3.295,2.458 0.927,0.936 1.551,1.977 1.874,3.125 0.312,1.106 0.154,1.968 -0.476,2.588 -0.631,0.619 -1.447,1.083 -2.449,1.392 -1.003,0.309 -2.066,0.495 -3.192,0.558 -1.125,0.064 -2.022,0.114 -2.689,0.151 -0.877,0.045 -1.98,0.03 -3.308,-0.047 -1.329,-0.077 -2.733,-0.114 -4.211,-0.111 -1.479,0.002 -2.958,0.09 -4.437,0.261 -1.479,0.172 -2.801,0.516 -3.963,1.033 -1.163,0.517 -2.113,1.256 -2.849,2.218 -0.737,0.963 -1.08,2.24 -1.028,3.833 0.063,1.295 0.377,2.623 0.943,3.986 0.565,1.361 1.319,2.667 2.258,3.917 0.94,1.249 2.025,2.41 3.26,3.481 1.234,1.071 2.531,1.97 3.892,2.694 1.36,0.723 2.74,1.221 4.137,1.491 1.398,0.271 2.755,0.246 4.071,-0.075 0.039,-0.01 0.241,-0.05 0.605,-0.117 0.364,-0.068 0.765,-0.155 1.204,-0.262 0.438,-0.108 0.879,-0.247 1.323,-0.419 0.444,-0.173 0.791,-0.353 1.041,-0.54 0.92,-0.732 1.615,-1.432 2.087,-2.096 0.471,-0.665 0.831,-1.355 1.078,-2.07 0.247,-0.716 0.424,-1.509 0.527,-2.38 C -0.345,2.091 -0.196,1.104 0,0" /></g><g
           transform="translate(44.1926,25.2234)"
           id="g48"><path
             id="path50"
             style="fill:#1d1d1b;fill-opacity:1;fill-rule:nonzero;stroke:none"
             d="m 0,0 c -0.006,-0.185 0.003,-0.349 0.049,-0.465 1.421,-0.49 1.336,-1.961 2.255,-1.569 0.92,0.392 1.17,-0.686 2.923,-0.979 0.084,-0.98 -1.516,-2.822 -1.836,-3.921 -0.321,-1.098 -0.303,-3.696 -0.502,-4.997 -0.2,-1.302 -2.991,-4.728 -3.174,-5.587 0.167,-0.586 1.587,-2.841 2.673,-2.841 1.086,0 5.763,0.196 5.763,0.196 0,0 0.501,1.47 -0.501,1.96 -0.585,0 -1.336,0 -1.754,0.195 -0.418,0.197 -0.835,1.471 -0.835,1.471 0,0 1.086,4.41 1.42,5.389 0.334,0.98 0.5,1.96 1.086,3.136 0.584,1.176 1.419,4.802 1.419,4.802 0,0 1.755,1.275 2.256,0.589 0.167,-7.448 3.926,-11.956 3.926,-11.956 0,0 -0.083,-4.704 1.169,-4.704 1.253,0 7.1,3.528 6.599,6.076 -0.25,0.588 -0.501,0.783 -1.085,0.882 -0.586,0.097 -1.421,-1.372 -2.005,-1.666 -0.584,-0.294 -2.507,0.98 -2.924,1.273 -0.418,0.294 -1.254,3.039 -1.337,3.724 -0.083,0.686 0.083,4.999 -0.751,6.468 0,0 1.503,2.255 2.924,1.274 0.501,-0.098 0.083,1.961 0.083,1.961 0,0 2.91,-1.147 3.244,0.518 C 19.688,2.787 18.594,4.522 17.711,6.307 12.254,5.347 6.744,4.474 1.207,3.648 Z m 4.863,14.698 c 0.059,0.017 0.12,0.038 0.176,0.047 2.517,0.444 3.523,2.158 4.274,3.955 -0.469,1.922 -0.764,4.198 -0.843,6.901 z m 49.387,-25.57 c -7.08,5.78 -13.634,12.143 -19.663,19.085 -6.03,6.942 -11.204,14.592 -15.524,22.949 -0.841,1.57 -1.53,2.953 -2.07,4.148 -0.54,1.192 -1.035,2.355 -1.485,3.486 -0.45,1.131 -0.855,2.294 -1.215,3.487 -0.36,1.193 -0.78,2.64 -1.26,4.335 -0.18,0.755 -0.33,1.556 -0.45,2.404 -0.121,0.848 -0.256,1.696 -0.405,2.544 -0.15,0.849 -0.346,1.664 -0.585,2.451 -0.24,0.785 -0.63,1.492 -1.17,2.12 -2.34,1.759 -4.319,1.32 -5.939,-1.319 -3.6,-9.174 -7.02,-18.316 -10.26,-27.425 -3.239,-9.112 -6.241,-18.442 -9,-27.992 -0.481,-1.76 -1.124,-3.425 -1.934,-4.995 -0.81,-1.572 -1.456,-3.237 -1.935,-4.995 -0.18,-0.879 -0.016,-1.758 0.495,-2.638 0.509,-0.88 1.199,-1.697 2.07,-2.451 0.869,-0.754 1.859,-1.414 2.97,-1.979 1.109,-0.566 2.159,-0.957 3.149,-1.178 0.99,-0.22 1.89,-0.204 2.7,0.047 0.81,0.252 1.335,0.786 1.575,1.601 L 0,0 c 0.062,1.839 2.441,6.814 2.137,10.019 -2.088,2.45 -3.09,3.822 -3.174,4.802 -0.084,0.98 2.005,2.744 1.003,5.291 -0.062,0.18 0.216,0.137 0.591,0.011 -0.042,0.091 -0.061,0.191 -0.024,0.306 0.499,1.561 0.775,2.761 0.902,4.696 0.098,1.49 0.239,3.508 0.747,5.411 0.507,1.903 0.311,2.343 0.381,2.791 0.166,1.078 -0.677,1.387 -0.51,2.171 0.167,0.784 -0.583,0.686 -0.583,0.686 0,0 0.416,1.567 0.083,2.352 C 1.219,39.32 1.219,38.34 0.884,38.829 0.55,39.32 0.55,40.104 0.801,40.594 c 0.251,0.49 0.501,0.588 0.501,0.588 0,0 -0.501,0.294 -0.418,0.881 0.084,0.589 0,2.156 0,2.156 0,0 1.169,-0.784 1.754,-0.098 0.586,0.686 -0.222,2.092 4.122,2.385 5.651,-0.392 5.85,-5.194 5.85,-5.194 l 0.084,-3.135 c 0,-0.36 -0.04,-0.704 0.094,-1.029 0.139,-0.34 0.494,-0.529 0.535,-0.931 0.076,-0.765 -0.642,-0.797 -1.082,-0.938 -0.016,-0.386 0.09,-0.964 -0.036,-1.318 -0.147,-0.408 -0.576,-0.511 -0.732,-0.924 -0.152,-0.401 -0.106,-0.662 -0.536,-0.83 -0.525,-0.203 -1.194,0.098 -1.807,0.32 -0.486,-0.248 -0.227,-1.145 -0.227,-1.145 0,0 3.258,-5.585 3.592,-6.369 0.334,-0.784 0.934,-1.715 1.169,-2.45 0.553,-1.727 0.653,-9.392 4.047,-16.256 0.135,0.024 0.272,0.045 0.407,0.069 1.731,0.305 2.883,0.563 3.731,0.793 2.937,-0.821 5.687,-1.573 7.428,-3.668 6.03,-7.257 12.824,-13.964 20.384,-20.122 0.959,-0.502 1.859,-0.66 2.7,-0.471 0.839,0.188 1.499,0.582 1.98,1.178 0.479,0.598 0.733,1.353 0.764,2.261 0.03,0.912 -0.255,1.838 -0.855,2.781" /></g><g
           transform="translate(49.8531,49.6308)"
           id="g52"><path
             id="path54"
             style="fill:#00a390;fill-opacity:1;fill-rule:nonzero;stroke:none"
             d="m 0,0 c -1.861,0.458 -4.153,0.133 -4.153,0.133 0,0 0.559,1.043 0.011,0.918 -0.853,0.168 -1.89,0.026 -1.89,0.026 0,0 -1.775,-1.102 -3.349,-1.493 -0.268,-0.067 -0.423,0.599 -0.714,0.524 -0.71,-0.189 -1.481,-0.405 -2.268,-0.651 -0.606,-0.189 -1.223,-0.394 -1.828,-0.614 l -2.585,-7.249 2.288,0.742 c 2.641,1.044 5.973,2.539 6.138,3.5 5.74,-0.625 7.241,0.73 7.256,0.944 0.016,0.216 -0.535,0.373 -0.039,0.976 C 0.842,-1.842 0.899,-0.772 0,0" /></g><g
           transform="translate(249.7427,73.6973)"
           id="g56"><path
             id="path58"
             style="fill:#009d8b;fill-opacity:1;fill-rule:nonzero;stroke:none"
             d="m 0,0 c 0.415,0.089 0.834,0.168 1.243,0.277 -0.056,0.758 1.812,1.348 2.285,1.99 0.277,0.378 0.46,0.839 0.681,1.251 0.256,0.485 0.302,0.942 0.624,1.34 0.33,0.412 0.627,0.687 0.895,1.193 0.236,0.45 0.137,1.049 0.353,1.446 0.195,0.358 0.648,0.499 0.957,0.81 0.662,0.662 1.085,1.741 0.836,2.669 1.014,0.092 1.295,1.408 1.495,2.224 0.11,0.452 0.32,0.892 0.444,1.34 0.172,0.621 0.171,1.335 0.595,1.776 0.305,0.316 0.467,0.062 0.646,0.558 0.082,0.228 -0.066,0.607 -0.034,0.859 0.089,0.703 0.575,1.012 0.772,1.548 0.341,0.917 0.793,2.371 0.747,3.327 -0.071,1.486 -0.16,2.789 -1.926,2.231 C 9.52,24.495 8.591,23.901 7.661,23.238 6.527,22.432 5.176,21.472 4.218,20.493 3.081,19.333 1.833,18.662 0.647,17.632 -0.497,16.639 -1.458,15.399 -2.476,14.482 -3.042,13.975 -3.698,13.677 -4.179,13.144 -4.702,12.564 -4.698,11.94 -5.624,11.544 -5.593,10.622 -6.413,10.668 -6.886,10.116 -7.319,9.609 -7.353,8.98 -7.989,8.486 -8.571,8.034 -9.298,7.957 -9.773,7.397 c -0.413,-0.489 -0.383,-1.279 -1.06,-1.558 0,0 -2.968,3.004 -5.616,1.338 -0.285,-0.14 -0.799,-0.326 -0.799,-0.326 0.19,-0.905 0.993,-2.477 -0.313,-2.388 -1.017,0.07 -1.996,0.792 -3.339,0.219 -0.05,0.435 -0.601,0.713 -1.3,0.566 -0.769,-0.164 -1.566,-0.406 -2.302,-0.331 -1.103,0.112 -2.313,0.326 -3.423,0.145 -0.664,-0.106 -1.289,-0.359 -1.922,-0.251 -0.637,0.108 -0.879,0.278 -1.619,0.132 -1.329,-0.266 -2.439,-0.317 -3.687,-0.049 -0.869,0.185 -1.975,0.349 -2.365,-0.049 -0.603,-1.17 -0.628,-2.414 0.654,-3.043 0.579,-0.283 0.617,-0.299 1.045,-0.769 0.53,-0.58 0.989,-0.974 1.832,-0.979 0.204,-0.541 1.309,-0.668 1.811,-0.725 0.173,-1.053 1.668,-1.937 2.611,-2.2 1.054,-0.296 0.546,-0.486 1.094,-1.345 0.389,-0.611 1.285,-0.665 1.912,-0.873 0.936,-0.309 1.704,-0.398 2.695,-0.44 0.656,-0.028 2.28,-0.514 2.688,-1.08 1.089,0.21 2.035,-0.292 3.115,-0.22 1.212,0.079 2.542,0.373 3.737,0.24 2.508,-0.282 4.392,1.614 6.948,1.459 0.022,-1.108 1.989,-1.486 2.776,-1.553 0.257,-0.018 -0.53,-4.071 -0.563,-4.363 -0.113,-0.993 -0.917,-2.466 -0.123,-3.33 0.476,-0.515 1.329,-0.512 1.972,-0.5 1.637,0.028 3.191,0.558 4.794,0.814 1.182,0.19 2.605,0.333 3.601,0.982 0.84,0.546 1.597,1.384 2.409,1.952 0.778,0.548 1.714,1.035 2.048,1.994 0.289,0.832 0.141,2.641 -0.546,3.24 C 8.697,-5.639 8.095,-5.471 7.728,-5.253 7.385,-5.048 6.942,-4.93 6.557,-4.85 5.972,-4.727 5.53,-4.641 4.991,-4.451 4.53,-4.287 4.126,-3.984 3.656,-3.821 2.781,-3.525 2.294,-3.195 1.513,-2.582 Z" /></g></g></g><text
       id="text62"
       style="font-variant:normal;font-weight:normal;font-stretch:normal;font-size:16.98310089px;font-family:'Myriad Pro';-inkscape-font-specification:MyriadPro-Regular;writing-mode:lr-tb;fill:#1d1d1b;fill-opacity:1;fill-rule:nonzero;stroke:none"
       transform="matrix(1,0,0,-1,249.1587,12.7539)"><tspan
         id="tspan60"
         y="0"
         x="0">©</tspan></text>
<g
       id="g64"><g
         clip-path="url(#clipPath70)"
         id="g66"><g
           transform="translate(91.5344,45.6702)"
           id="g72"><path
             id="path74"
             style="fill:#1d1d1b;fill-opacity:1;fill-rule:nonzero;stroke:none"
             d="m 0,0 c -0.144,-2.422 -0.215,-5.049 -0.215,-7.881 0,-0.698 -0.042,-1.417 -0.124,-2.156 -0.083,-0.739 -0.061,-1.436 0.062,-2.093 0.041,-0.739 0.013,-7.561 -0.335,-8.053 -0.349,-0.493 -0.769,-0.81 -1.262,-0.955 -0.493,-0.143 -1.016,-0.102 -1.57,0.123 -0.554,0.226 -1.038,0.668 -1.448,1.324 -0.205,0.945 -0.394,8.105 -0.311,9.069 0.081,0.966 0.123,1.94 0.123,2.925 0,3.039 0.082,5.872 0.247,8.498" /></g><g
           transform="translate(105.3654,41.8024)"
           id="g76"><path
             id="path78"
             style="fill:#1d1d1b;fill-opacity:1;fill-rule:nonzero;stroke:none"
             d="m 0,0 c -0.144,-3.164 -0.215,-6.596 -0.215,-10.297 0,-0.912 -0.042,-1.85 -0.124,-2.816 -0.083,-0.966 -0.061,-1.877 0.062,-2.736 0.041,-0.965 0.013,-9.879 -0.335,-10.521 -0.349,-0.645 -0.769,-1.059 -1.262,-1.248 -0.493,-0.187 -1.016,-0.133 -1.57,0.161 -0.554,0.295 -1.038,0.873 -1.448,1.729 -0.205,1.236 -0.394,10.59 -0.311,11.85 0.081,1.261 0.123,2.535 0.123,3.822 0,3.97 0.082,7.671 0.247,11.102" /></g><g
           transform="translate(187.2264,26.2054)"
           id="g80"><path
             id="path82"
             style="fill:#1d1d1b;fill-opacity:1;fill-rule:nonzero;stroke:none"
             d="M 0,0 C 0.835,0.176 1.669,0.249 2.503,0.216 3.336,0.183 4.188,0.094 5.06,-0.053 5.93,-0.199 6.845,-0.29 7.803,-0.329 c 2.712,-0.081 5.387,-0.04 8.028,0.126 2.639,0.165 5.311,0.188 8.015,0.066 0.851,-0.142 1.47,-0.485 1.856,-1.03 0.386,-0.547 0.549,-1.106 0.488,-1.68 -0.062,-0.576 -0.329,-1.085 -0.802,-1.528 -0.474,-0.444 -1.15,-0.655 -2.027,-0.634 -2.833,0.108 -5.646,0.063 -8.438,-0.132 C 12.13,-5.336 9.305,-5.337 6.45,-5.139 6.281,-5.145 5.923,-5.1 5.377,-5.002 4.831,-4.906 4.738,-4.916 4.102,-4.843 3.467,-4.768 2.567,-4.686 2.044,-4.678 1.52,-4.671 -0.5,-4.298 -0.673,-4.514" /></g></g></g></g></svg>